<svg width="64" height="64" viewBox="0 0 64 64" fill="none" xmlns="http://www.w3.org/2000/svg">
<path d="M29.4666 39.8673L24.5333 44.8007C23.4932 45.8406 21.8399 45.8407 20.7733 44.8273C20.4799 44.534 20.1866 44.2673 19.8933 43.974C17.1466 41.2007 14.6666 38.294 12.4533 35.254C10.2666 32.214 8.50659 29.174 7.22659 26.1607C5.97325 23.1207 5.33325 20.214 5.33325 17.4407C5.33325 15.6273 5.65325 13.894 6.29325 12.294C6.93325 10.6673 7.94659 9.17398 9.35992 7.84065C11.0666 6.16065 12.9333 5.33398 14.9066 5.33398C15.6533 5.33398 16.3999 5.49398 17.0666 5.81398C17.7599 6.13398 18.3733 6.61398 18.8533 7.30732L25.0399 16.0273C25.5199 16.694 25.8666 17.3073 26.1066 17.894C26.3466 18.454 26.4799 19.014 26.4799 19.5207C26.4799 20.1607 26.2933 20.8007 25.9199 21.414C25.5733 22.0273 25.0666 22.6673 24.4266 23.3073L22.3999 25.414C22.1066 25.7073 21.9732 26.054 21.9732 26.4807C21.9732 26.694 21.9999 26.8807 22.0533 27.094C22.1333 27.3073 22.2133 27.4673 22.2666 27.6273C22.7466 28.5073 23.5732 29.654 24.7466 31.0407C25.9466 32.4273 27.2266 33.8407 28.6132 35.254C28.8799 35.5207 29.1733 35.7873 29.4399 36.054C30.5066 37.094 30.5333 38.8007 29.4666 39.8673Z" fill="#2B7A78"/>
<path d="M58.5868 48.8795C58.5868 49.6261 58.4534 50.3995 58.1868 51.1461C58.1068 51.3595 58.0268 51.5728 57.9201 51.7861C57.4668 52.7461 56.8801 53.6528 56.1068 54.5061C54.8001 55.9461 53.3601 56.9861 51.7334 57.6528C51.7068 57.6528 51.6801 57.6795 51.6534 57.6795C50.0801 58.3195 48.3734 58.6661 46.5334 58.6661C43.8134 58.6661 40.9068 58.0261 37.8401 56.7195C34.7734 55.4128 31.7068 53.6528 28.6668 51.4395C27.6268 50.6661 26.5868 49.8928 25.6001 49.0661L34.3201 40.3461C35.0668 40.9061 35.7334 41.3328 36.2934 41.6261C36.4268 41.6795 36.5868 41.7595 36.7734 41.8395C36.9868 41.9195 37.2001 41.9461 37.4401 41.9461C37.8934 41.9461 38.2401 41.7861 38.5334 41.4928L40.5601 39.4928C41.2268 38.8261 41.8668 38.3195 42.4801 37.9995C43.0934 37.6261 43.7068 37.4395 44.3734 37.4395C44.8801 37.4395 45.4134 37.5461 46.0001 37.7861C46.5868 38.0261 47.2001 38.3728 47.8668 38.8261L56.6934 45.0928C57.3868 45.5728 57.8668 46.1328 58.1601 46.7995C58.4268 47.4661 58.5868 48.1328 58.5868 48.8795Z" fill="#2B7A78"/>
</svg>
