<svg width="49" height="55" viewBox="0 0 49 55" fill="none" xmlns="http://www.w3.org/2000/svg">
<path d="M35.1667 0.927734H13.8333C4.5 0.927734 0.5 6.26107 0.5 14.2611V40.9277C0.5 48.9277 4.5 54.2611 13.8333 54.2611H35.1667C44.5 54.2611 48.5 48.9277 48.5 40.9277V14.2611C48.5 6.26107 44.5 0.927734 35.1667 0.927734ZM13.8333 28.2611H24.5C25.5933 28.2611 26.5 29.1677 26.5 30.2611C26.5 31.3544 25.5933 32.2611 24.5 32.2611H13.8333C12.74 32.2611 11.8333 31.3544 11.8333 30.2611C11.8333 29.1677 12.74 28.2611 13.8333 28.2611ZM35.1667 42.9277H13.8333C12.74 42.9277 11.8333 42.0211 11.8333 40.9277C11.8333 39.8344 12.74 38.9277 13.8333 38.9277H35.1667C36.26 38.9277 37.1667 39.8344 37.1667 40.9277C37.1667 42.0211 36.26 42.9277 35.1667 42.9277ZM41.8333 20.2611H36.5C32.4467 20.2611 29.1667 16.9811 29.1667 12.9277V7.5944C29.1667 6.50107 30.0733 5.5944 31.1667 5.5944C32.26 5.5944 33.1667 6.50107 33.1667 7.5944V12.9277C33.1667 14.7677 34.66 16.2611 36.5 16.2611H41.8333C42.9267 16.2611 43.8333 17.1677 43.8333 18.2611C43.8333 19.3544 42.9267 20.2611 41.8333 20.2611Z" fill="#2B7A78"/>
</svg>
