<svg width="55" height="55" viewBox="0 0 55 55" fill="none" xmlns="http://www.w3.org/2000/svg">
<path d="M38.6735 0.927734H16.3268C6.62016 0.927734 0.833496 6.7144 0.833496 16.4211V38.7411C0.833496 48.4744 6.62016 54.2611 16.3268 54.2611H38.6468C48.3535 54.2611 54.1402 48.4744 54.1402 38.7677V16.4211C54.1668 6.7144 48.3802 0.927734 38.6735 0.927734ZM24.7002 42.2877C23.9268 43.0611 22.4602 43.8077 21.3935 43.9677L14.8335 44.9011C14.5935 44.9277 14.3535 44.9544 14.1135 44.9544C13.0202 44.9544 12.0068 44.5811 11.2868 43.8611C10.4068 42.9811 10.0335 41.7011 10.2468 40.2877L11.1802 33.7277C11.3402 32.6344 12.0602 31.1944 12.8602 30.4211L24.7535 18.5277C24.9668 19.0877 25.1802 19.6477 25.4735 20.2877C25.7402 20.8477 26.0335 21.4344 26.3535 21.9677C26.6202 22.4211 26.9135 22.8477 27.1535 23.1677C27.4468 23.6211 27.7935 24.0477 28.0068 24.2877C28.1402 24.4744 28.2468 24.6077 28.3002 24.6611C28.9668 25.4611 29.7402 26.2077 30.4068 26.7677C30.5935 26.9544 30.7002 27.0611 30.7535 27.0877C31.1535 27.4077 31.5535 27.7277 31.9002 27.9677C32.3268 28.2877 32.7535 28.5811 33.2068 28.8211C33.7402 29.1411 34.3268 29.4344 34.9135 29.7277C35.5268 29.9944 36.0868 30.2344 36.6468 30.4211L24.7002 42.2877ZM41.8202 25.1677L39.3668 27.6477C39.2068 27.8077 38.9935 27.8877 38.7802 27.8877C38.7002 27.8877 38.5935 27.8877 38.5402 27.8611C33.1268 26.3144 28.8068 21.9944 27.2602 16.5811C27.1802 16.2877 27.2602 15.9677 27.4735 15.7811L29.9535 13.3011C34.0068 9.24773 37.8735 9.32773 41.8468 13.3011C43.8735 15.3277 44.8602 17.2744 44.8602 19.3011C44.8335 21.2211 43.8468 23.1411 41.8202 25.1677Z" fill="#2B7A78"/>
</svg>
