<svg width="48" height="40" viewBox="0 0 48 40" fill="none" xmlns="http://www.w3.org/2000/svg">
<path d="M43.4044 10.0564C43.4334 10.4772 43.4334 10.898 43.4334 11.3227C43.4334 24.2632 33.6012 39.1876 15.6225 39.1876V39.1798C10.3115 39.1876 5.11086 37.6633 0.639893 34.7894C1.41215 34.8825 2.18828 34.929 2.96634 34.931C7.36763 34.9348 11.6431 33.4552 15.1057 30.7306C10.9231 30.6511 7.25538 27.9187 5.97409 23.9297C7.43925 24.2128 8.94893 24.1546 10.387 23.761C5.82699 22.8379 2.54634 18.8237 2.54634 14.1617C2.54634 14.1191 2.54634 14.0783 2.54634 14.0376C3.90505 14.7959 5.42634 15.2167 6.98247 15.2632C2.68763 12.3873 1.36376 6.6627 3.95731 2.18694C8.91989 8.30523 16.2418 12.0247 24.1018 12.4184C23.3141 9.01693 24.3902 5.45261 26.9296 3.06153C30.8663 -0.646289 37.058 -0.456243 40.7586 3.48623C42.9476 3.05378 45.0457 2.24899 46.9657 1.10872C46.236 3.37569 44.7089 5.30135 42.6689 6.52501C44.6063 6.29618 46.4992 5.77646 48.2818 4.98332C46.9696 6.95358 45.3167 8.66981 43.4044 10.0564Z" fill="#1D9BF0"/>
</svg>
